<?xml version="1.0" encoding="UTF-8" standalone="no"?>
<!-- Created with Inkscape (http://www.inkscape.org/) -->

<svg
   xmlns:dc="http://purl.org/dc/elements/1.1/"
   xmlns:cc="http://creativecommons.org/ns#"
   xmlns:rdf="http://www.w3.org/1999/02/22-rdf-syntax-ns#"
   xmlns:svg="http://www.w3.org/2000/svg"
   xmlns="http://www.w3.org/2000/svg"
   xmlns:sodipodi="http://sodipodi.sourceforge.net/DTD/sodipodi-0.dtd"
   xmlns:inkscape="http://www.inkscape.org/namespaces/inkscape"
   width="1920"
   height="1080"
   id="svg3187"
   version="1.1"
   inkscape:version="0.48.5 r10040"
   sodipodi:docname="background.svg"
   inkscape:export-filename="/home/bruno/workspace/scale/img/background.png"
   inkscape:export-xdpi="90"
   inkscape:export-ydpi="90">
  <defs
     id="defs3189">
    <filter
       color-interpolation-filters="sRGB"
       id="filter4756-7"
       inkscape:label="Drop Shadow">
      <feFlood
         id="feFlood4758-3"
         flood-opacity="0.371"
         flood-color="rgb(0,0,0)"
         result="flood" />
      <feComposite
         id="feComposite4760-6"
         in2="SourceGraphic"
         in="flood"
         operator="in"
         result="composite1" />
      <feGaussianBlur
         id="feGaussianBlur4762-8"
         stdDeviation="2.1"
         result="blur" />
      <feOffset
         id="feOffset4764-8"
         dx="2.7"
         dy="2.8"
         result="offset" />
      <feComposite
         id="feComposite4766-9"
         in2="offset"
         in="SourceGraphic"
         operator="over"
         result="composite2" />
    </filter>
    <filter
       color-interpolation-filters="sRGB"
       id="filter4744-4"
       inkscape:label="Drop Shadow">
      <feFlood
         id="feFlood4746-4"
         flood-opacity="0.371"
         flood-color="rgb(0,0,0)"
         result="flood" />
      <feComposite
         id="feComposite4748-2"
         in2="SourceGraphic"
         in="flood"
         operator="in"
         result="composite1" />
      <feGaussianBlur
         id="feGaussianBlur4750-5"
         stdDeviation="2.1"
         result="blur" />
      <feOffset
         id="feOffset4752-2"
         dx="2.7"
         dy="2.8"
         result="offset" />
      <feComposite
         id="feComposite4754-0"
         in2="offset"
         in="SourceGraphic"
         operator="over"
         result="composite2" />
    </filter>
    <filter
       color-interpolation-filters="sRGB"
       id="filter4732-4"
       inkscape:label="Drop Shadow">
      <feFlood
         id="feFlood4734-4"
         flood-opacity="0.371"
         flood-color="rgb(0,0,0)"
         result="flood" />
      <feComposite
         id="feComposite4736-53"
         in2="SourceGraphic"
         in="flood"
         operator="in"
         result="composite1" />
      <feGaussianBlur
         id="feGaussianBlur4738-2"
         stdDeviation="2.1"
         result="blur" />
      <feOffset
         id="feOffset4740-6"
         dx="2.7"
         dy="2.8"
         result="offset" />
      <feComposite
         id="feComposite4742-6"
         in2="offset"
         in="SourceGraphic"
         operator="over"
         result="composite2" />
    </filter>
    <filter
       color-interpolation-filters="sRGB"
       id="filter4480-8"
       inkscape:label="Drop Shadow">
      <feFlood
         id="feFlood4482-4"
         flood-opacity="0.371"
         flood-color="rgb(0,0,0)"
         result="flood" />
      <feComposite
         id="feComposite4484-6"
         in2="SourceGraphic"
         in="flood"
         operator="in"
         result="composite1" />
      <feGaussianBlur
         id="feGaussianBlur4486-1"
         stdDeviation="2.1"
         result="blur" />
      <feOffset
         id="feOffset4488-1"
         dx="2.7"
         dy="2.8"
         result="offset" />
      <feComposite
         id="feComposite4490-6"
         in2="offset"
         in="SourceGraphic"
         operator="over"
         result="composite2" />
    </filter>
    <filter
       color-interpolation-filters="sRGB"
       id="filter3065"
       inkscape:label="Drop Shadow">
      <feFlood
         id="feFlood3067"
         flood-opacity="0.371"
         flood-color="rgb(0,0,0)"
         result="flood" />
      <feComposite
         id="feComposite3069"
         in2="SourceGraphic"
         in="flood"
         operator="in"
         result="composite1" />
      <feGaussianBlur
         id="feGaussianBlur3071"
         stdDeviation="2.1"
         result="blur" />
      <feOffset
         id="feOffset3073"
         dx="2.7"
         dy="2.8"
         result="offset" />
      <feComposite
         id="feComposite3075"
         in2="offset"
         in="SourceGraphic"
         operator="over"
         result="composite2" />
    </filter>
    <filter
       color-interpolation-filters="sRGB"
       id="filter3077"
       inkscape:label="Drop Shadow">
      <feFlood
         id="feFlood3079"
         flood-opacity="0.371"
         flood-color="rgb(0,0,0)"
         result="flood" />
      <feComposite
         id="feComposite3081"
         in2="SourceGraphic"
         in="flood"
         operator="in"
         result="composite1" />
      <feGaussianBlur
         id="feGaussianBlur3083"
         stdDeviation="2.1"
         result="blur" />
      <feOffset
         id="feOffset3085"
         dx="2.7"
         dy="2.8"
         result="offset" />
      <feComposite
         id="feComposite3087"
         in2="offset"
         in="SourceGraphic"
         operator="over"
         result="composite2" />
    </filter>
    <filter
       color-interpolation-filters="sRGB"
       id="filter3089"
       inkscape:label="Drop Shadow">
      <feFlood
         id="feFlood3091"
         flood-opacity="0.371"
         flood-color="rgb(0,0,0)"
         result="flood" />
      <feComposite
         id="feComposite3093"
         in2="SourceGraphic"
         in="flood"
         operator="in"
         result="composite1" />
      <feGaussianBlur
         id="feGaussianBlur3095"
         stdDeviation="2.1"
         result="blur" />
      <feOffset
         id="feOffset3097"
         dx="2.7"
         dy="2.8"
         result="offset" />
      <feComposite
         id="feComposite3099"
         in2="offset"
         in="SourceGraphic"
         operator="over"
         result="composite2" />
    </filter>
    <filter
       color-interpolation-filters="sRGB"
       id="filter3101"
       inkscape:label="Drop Shadow">
      <feFlood
         id="feFlood3103"
         flood-opacity="0.371"
         flood-color="rgb(0,0,0)"
         result="flood" />
      <feComposite
         id="feComposite3105"
         in2="SourceGraphic"
         in="flood"
         operator="in"
         result="composite1" />
      <feGaussianBlur
         id="feGaussianBlur3107"
         stdDeviation="2.1"
         result="blur" />
      <feOffset
         id="feOffset3109"
         dx="2.7"
         dy="2.8"
         result="offset" />
      <feComposite
         id="feComposite3111"
         in2="offset"
         in="SourceGraphic"
         operator="over"
         result="composite2" />
    </filter>
    <filter
       color-interpolation-filters="sRGB"
       id="filter3113"
       inkscape:label="Drop Shadow">
      <feFlood
         id="feFlood3115"
         flood-opacity="0.371"
         flood-color="rgb(0,0,0)"
         result="flood" />
      <feComposite
         id="feComposite3117"
         in2="SourceGraphic"
         in="flood"
         operator="in"
         result="composite1" />
      <feGaussianBlur
         id="feGaussianBlur3119"
         stdDeviation="2.1"
         result="blur" />
      <feOffset
         id="feOffset3121"
         dx="2.7"
         dy="2.8"
         result="offset" />
      <feComposite
         id="feComposite3123"
         in2="offset"
         in="SourceGraphic"
         operator="over"
         result="composite2" />
    </filter>
    <filter
       color-interpolation-filters="sRGB"
       id="filter3125"
       inkscape:label="Drop Shadow">
      <feFlood
         id="feFlood3127"
         flood-opacity="0.371"
         flood-color="rgb(0,0,0)"
         result="flood" />
      <feComposite
         id="feComposite3129"
         in2="SourceGraphic"
         in="flood"
         operator="in"
         result="composite1" />
      <feGaussianBlur
         id="feGaussianBlur3131"
         stdDeviation="2.1"
         result="blur" />
      <feOffset
         id="feOffset3133"
         dx="2.7"
         dy="2.8"
         result="offset" />
      <feComposite
         id="feComposite3135"
         in2="offset"
         in="SourceGraphic"
         operator="over"
         result="composite2" />
    </filter>
    <filter
       color-interpolation-filters="sRGB"
       id="filter3137"
       inkscape:label="Drop Shadow">
      <feFlood
         id="feFlood3139"
         flood-opacity="0.371"
         flood-color="rgb(0,0,0)"
         result="flood" />
      <feComposite
         id="feComposite3141"
         in2="SourceGraphic"
         in="flood"
         operator="in"
         result="composite1" />
      <feGaussianBlur
         id="feGaussianBlur3143"
         stdDeviation="2.1"
         result="blur" />
      <feOffset
         id="feOffset3145"
         dx="2.7"
         dy="2.8"
         result="offset" />
      <feComposite
         id="feComposite3147"
         in2="offset"
         in="SourceGraphic"
         operator="over"
         result="composite2" />
    </filter>
    <filter
       color-interpolation-filters="sRGB"
       id="filter3149"
       inkscape:label="Drop Shadow">
      <feFlood
         id="feFlood3151"
         flood-opacity="0.371"
         flood-color="rgb(0,0,0)"
         result="flood" />
      <feComposite
         id="feComposite3153"
         in2="SourceGraphic"
         in="flood"
         operator="in"
         result="composite1" />
      <feGaussianBlur
         id="feGaussianBlur3155"
         stdDeviation="2.1"
         result="blur" />
      <feOffset
         id="feOffset3157"
         dx="2.7"
         dy="2.8"
         result="offset" />
      <feComposite
         id="feComposite3159"
         in2="offset"
         in="SourceGraphic"
         operator="over"
         result="composite2" />
    </filter>
    <filter
       color-interpolation-filters="sRGB"
       id="filter3161"
       inkscape:label="Drop Shadow">
      <feFlood
         id="feFlood3163"
         flood-opacity="0.371"
         flood-color="rgb(0,0,0)"
         result="flood" />
      <feComposite
         id="feComposite3165"
         in2="SourceGraphic"
         in="flood"
         operator="in"
         result="composite1" />
      <feGaussianBlur
         id="feGaussianBlur3167"
         stdDeviation="2.1"
         result="blur" />
      <feOffset
         id="feOffset3169"
         dx="2.7"
         dy="2.8"
         result="offset" />
      <feComposite
         id="feComposite3171"
         in2="offset"
         in="SourceGraphic"
         operator="over"
         result="composite2" />
    </filter>
  </defs>
  <sodipodi:namedview
     id="base"
     pagecolor="#1c1e20"
     bordercolor="#666666"
     borderopacity="1.0"
     inkscape:pageopacity="0"
     inkscape:pageshadow="2"
     inkscape:zoom="0.175"
     inkscape:cx="662.16829"
     inkscape:cy="1936.4616"
     inkscape:document-units="px"
     inkscape:current-layer="g3544"
     showgrid="false"
     fit-margin-top="0"
     fit-margin-left="0"
     fit-margin-right="0"
     fit-margin-bottom="0"
     inkscape:window-width="1920"
     inkscape:window-height="1032"
     inkscape:window-x="-4"
     inkscape:window-y="-3"
     inkscape:window-maximized="1" />
  <metadata
     id="metadata3192">
    <rdf:RDF>
      <cc:Work
         rdf:about="">
        <dc:format>image/svg+xml</dc:format>
        <dc:type
           rdf:resource="http://purl.org/dc/dcmitype/StillImage" />
        <dc:title></dc:title>
      </cc:Work>
    </rdf:RDF>
  </metadata>
  <g
     inkscape:label="Layer 1"
     inkscape:groupmode="layer"
     id="layer1"
     transform="translate(555.73866,-95.196194)">
    <g
       transform="matrix(1.7922641,0,0,1.7758937,569.63155,-779.06359)"
       style="display:inline"
       id="g3544">
      <g
         id="g3842"
         transform="matrix(1.0860467,0,0,0.8324936,-1.1625191,123.10652)">
        <path
           transform="matrix(0.53032149,0.08847446,-0.08850853,0.5295495,-10.59333,525.83966)"
           inkscape:connector-curvature="0"
           style="fill:#173d4a;filter:url(#filter4756-7)"
           id="path10"
           d="m -429.8646,1354.2 c 142.9,70.3 314.3,135.9 455.099959,61.5 46,-24.3 86.000001,-62.8 137.000001,-72.9 90.7,-18 197.4,56.5 270,-0.8 27,-21.3 39.7,-55.5 60.2,-83.1 118.1,-158.2 406.2,-29.5 549.50004,-165.2 52.9,-50.1 72.7,-127.99999 66.7,-200.69999 -6,-72.7 34.9,-140.2 2.9,-205.7 62.9,-73.5 60.4,-163 41.9,-258 -38,-194.6 -104.1,-249.00005 -162.80004,-438.4000464 -14.7,-47.3999996 -341.7,-119.5000036 -363.6,-132.7000036 -107.6,-65 -223.5,-116.4 -343.9,-152.5 -70.4,-21.1 -144.4,-37.2 -217.100001,-26.1 -52.79996,8.1 -102.29996,30.1 -152.59996,48.2 -319.099999,114.5 -703.800029,81 -959.399999,303.700004 -90.7,79.099996 -157.8,213.800046 -97.6,318.000046 10.7,18.5 24.9,35.1 31.9,55.2 10.3,29.5 3.5,61.9 -4.5,92.1 -22,82.4 -53,163 -61.7,247.8 -8.7,84.8 8.9,177.8 70.7,236.5 80.3,76.39999 57,211.79999 165.69997,233.89999 24.2,4.9 189.80003,-7.2 208.40003,9 16.8,14.6 205,81.9 303.2,130.2 z" />
        <path
           transform="matrix(0.53032149,0.08847446,-0.08850853,0.5295495,-10.59333,525.83966)"
           inkscape:connector-curvature="0"
           style="fill:#529479;filter:url(#filter4744-4)"
           id="path52"
           d="m -697.6646,349.40001 c 0.6,13.5 8.2,25.6 15.8,36.8 11.1,16.3 25.6,33.8 45.3,34.3 6.4,0.2 13.1,-1.5 19.2,0.5 10.9,3.6 17.8,18.1 29.2,16.3 4.2,-0.7 7.7,-3.6 11.6,-5.3 22.4,-9.9 45.6,21.6 69.3,15.6 8.8,-2.2 15.6,-9.4 19.4,-17.6 3.8,-8.2 4.9,-17.4 5.4,-26.4 11.3,-4.1 23.9,-9.5 27.7,-20.9 7.8,-23.3 -28.4,-43.1 -23.2,-67.1 1.3,-6 5.2,-11.6 4.6,-17.7 -0.3,-3.2 -1.8,-6 -3.4,-8.8 -7.6,-13.6 -17,-26.2 -27.8,-37.4 -6.3,-6.6 -13.3,-12.8 -21.8,-16 -6.2,-2.3 -12.9,-3.00005 -19.4,-4.10005 -41.4,-7.1 -3.9,-0.7 -30.7,-6.9 -14.5,-3.4 -121.2,-5.3 -121.1,9.60005 0,2.6 0.6,5.3 0.1,7.9 -0.7,3.8 -3.4,6.9 -6.1,9.6 -7.4,7.5 -15.6,14.3 -21.7,23 -6.1,8.6 -9.9,19.7 -6.8,29.8 4,13.1 17.6,20.3 28,29.3 2.3,2 4.6,4.3 5.6,7.1 0.8,2.8 0.7,5.6 0.8,8.4 z" />
        <path
           transform="matrix(0.53032149,0.08847446,-0.08850853,0.5295495,-10.59333,525.83966)"
           inkscape:connector-curvature="0"
           d="m -429.8646,1354.2 c 142.9,70.3 314.3,135.9 455.099959,61.5 46,-24.3 86.000001,-62.8 137.000001,-72.9 90.7,-18 197.4,56.5 270,-0.8 27,-21.3 39.7,-55.5 60.2,-83.1 59.05,-79.1 160.6,-86.475 265.3,-91.0375 104.7,-4.5625 212.55,-6.3125 284.20004,-74.1625 52.9,-50.1 72.7,-127.99999 66.7,-200.69999 -6,-72.7 34.9,-140.2 2.9,-205.7 62.9,-73.5 60.4,-163 41.9,-258 -38,-194.6 -104.1,-249.00005 -162.80004,-438.4000464 -14.7,-47.3999996 -341.7,-119.5000036 -363.6,-132.7000036 -107.6,-65 -223.5,-116.4 -343.9,-152.5 -70.4,-21.1 -144.4,-37.2 -217.100001,-26.1 -52.79996,8.1 -102.29996,30.1 -152.59996,48.2 -159.549999,57.25 -335.500009,77.5 -503.512519,111.275 -168.0125,33.775 -328.08751,81.075002 -455.88748,192.425004 -90.7,79.099996 -157.8,213.800046 -97.6,318.000046 10.7,18.5 24.9,35.1 31.9,55.2 10.3,29.5 3.5,61.9 -4.5,92.1 -22,82.4 -53,163 -61.7,247.8 -8.7,84.8 8.9,177.8 70.7,236.5 80.3,76.39999 57,211.79999 165.69997,233.89999 24.2,4.9 189.80003,-7.2 208.40003,9 16.8,14.6 205,81.9 303.2,130.2 0,0 0,0 0,0"
           style="fill:#0d6967;fill-opacity:1;filter:url(#filter4732-4)"
           id="path4243" />
        <path
           transform="matrix(0.53032149,0.08847446,-0.08850853,0.5295495,-10.59333,525.83966)"
           inkscape:connector-curvature="0"
           d="m -697.6646,349.40001 c 0.6,13.5 8.2,25.6 15.8,36.8 11.1,16.3 25.6,33.8 45.3,34.3 6.4,0.2 13.1,-1.5 19.2,0.5 10.9,3.6 17.8,18.1 29.2,16.3 4.2,-0.7 7.7,-3.6 11.6,-5.3 22.4,-9.9 45.6,21.6 69.3,15.6 8.8,-2.2 15.6,-9.4 19.4,-17.6 3.8,-8.2 4.9,-17.4 5.4,-26.4 11.3,-4.1 23.9,-9.5 27.7,-20.9 7.8,-23.3 -28.4,-43.1 -23.2,-67.1 1.3,-6 5.2,-11.6 4.6,-17.7 -0.3,-3.2 -1.8,-6 -3.4,-8.8 -7.6,-13.6 -17,-26.2 -27.8,-37.4 -6.3,-6.6 -13.3,-12.8 -21.8,-16 -6.2,-2.3 -12.9,-3.00005 -19.4,-4.10005 -41.4,-7.1 -3.9,-0.7 -30.7,-6.9 -14.5,-3.4 -121.2,-5.3 -121.1,9.60005 0,2.6 0.6,5.3 0.1,7.9 -0.7,3.8 -3.4,6.9 -6.1,9.6 -7.4,7.5 -15.6,14.3 -21.7,23 -6.1,8.6 -9.9,19.7 -6.8,29.8 4,13.1 17.6,20.3 28,29.3 2.3,2 4.6,4.3 5.6,7.1 0.8,2.8 0.7,5.6 0.8,8.4 0,0 0,0 0,0"
           style="fill:#22a472;fill-opacity:1;filter:url(#filter4480-8)"
           id="path4285" />
        <path
           transform="matrix(0.53032149,0.08847446,-0.08850853,0.5295495,-10.59333,525.83966)"
           id="path6389"
           style="fill:#21a171;fill-opacity:1;filter:url(#filter4732-4)"
           d="m -519.13127,1019.2667 c 95.46667,51.3666 212.26667,99.1333 308.66664,53.2666 34.36667,-10.7666 65.86667,-30.6 106.43334,-37.1666 62.599999,-11.9334 135.966649,37.1666 186.399949,-0.3667 21.633401,-13 32.400001,-30.9667 49.866701,-49.96666 40.7667,-52.96667 109.6333,-58.85 180.7333,-62.45834 77.2667,-6.34166 156.9,2.99167 212.5667,-44.24166 38.2,-34.13334 53.6667,-88.46666 50.9333,-139.66666 -2.7333,-51.2 24.9,-99.26667 3.7334,-145.93334 45.7,-50.36666 48.2333,-111.83333 37.1666,-178.96666 -22.7333,-137.5 -78.8666,-180.3667 -116.2666,-314.633368 -9.3667,-33.599999 -226.0667,-83.533335 -240.8667,-94.3666687 -71.8333,-44.4000003 -149.6,-79.6000003 -230.400001,-104.6000003 -49.46665,-18.600003 -101.93332,-33.533333 -153.999989,-29.866663 -37.29997,3.2 -72.6333,15.8 -108.99997,26.8 -108.43333,37.399997 -227.96667,50.666647 -342.14168,72.816647 -125.80833,20.1499997 -220.02501,53.816668 -314.15834,125.983336 -65.3,51.599997 -145.59998,140.766697 -105.43333,215.200047 7.13333,13.2 16.8,25.16667 21.3,39.43333 6.63333,20.93334 1.2,43.56667 -5.03334,64.6 -17.13333,57.43334 -40.53331,113.43334 -48.36671,172.86667 -7.8333,59.4 2.6334,125.1 44.86671,167.6 54.86667,55.29999 43.86667,147.96666 119.8,165.69999 16.9,3.93334 128.06669,-3.36666 140.80002,8.36667 11.46667,10.66667 136.9,56.46667 202.4,89.60003 0,0 0,0 0,0"
           inkscape:connector-curvature="0" />
        <path
           inkscape:connector-curvature="0"
           d="m -213.55128,1180.6459 c 69.75702,44.1413 154.584937,87.394 231.239826,56.9909 25.187463,-9.6614 48.119279,-26.9176 75.315541,-29.302 47.803073,-4.3333 98.845513,39.7222 139.447253,14.2384 15.26428,-9.3979 23.76203,-25.9945 36.04172,-39.0889 34.77328,-37.4826 87.53675,-35.8334 141.7753,-32.5432 54.622,3.1664 110.64327,8.7697 151.6924,-22.3114 30.13042,-22.9245 44.69366,-62.0356 45.63339,-99.8942 0.93974,-37.8586 25.69561,-70.53285 12.7942,-106.11805 36.6001,-34.44756 40.4202,-80.68122 36.13785,-130.74494 C 647.70071,689.31637 615.93559,657.30455 596.1199,556.28349 591.15581,531.00116 426.77465,476.14492 416.21382,468.05182 364.33049,428.74873 307.41236,395.99491 247.34665,370.86429 212.11766,355.92381 174.72651,343.37553 136.50117,344.90765 c -27.73669,1.16602 -54.541618,9.66385 -81.583231,16.16938 -85.371512,20.75013 -177.197109,21.6199 -265.663249,29.86548 -89.1448,8.05435 -173.40051,23.92308 -245.75319,74.0865 -51.2655,35.66865 -95.21912,101.03904 -69.89343,158.16531 4.50227,10.14208 10.92128,19.49974 13.42186,30.26338 3.68428,15.79856 -1.63153,32.14554 -7.44527,47.28855 -15.95222,41.31061 -36.45552,81.19355 -45.66621,124.48378 -9.21048,43.28825 -5.28262,92.26903 23.40024,125.99856 37.26172,43.89181 18.18658,112.42071 73.14736,129.86121 12.23677,3.8724 98.20129,6.6559 106.91526,16.0486 7.86983,8.4723 101.12299,53.3076 149.06741,83.5075 0,0 0,0 0,0"
           style="fill:#0f6f68;fill-opacity:1;filter:url(#filter4732-4)"
           id="path8899"
           transform="matrix(0.9981598,0.0606384,-0.0606384,0.9981598,-75.633404,18.815069)" />
        <path
           inkscape:connector-curvature="0"
           d="m -216.76205,1160.2184 c 67.0572,42.7221 148.752628,84.5761 222.5913273,55.5888 24.4117397,-8.9311 46.7219167,-25.1329 73.2762327,-27.3728 46.09569,-4.1487 95.31641,38.1919 134.47768,13.7425 14.89358,-8.9389 23.17503,-24.5846 35.22077,-37.1876 33.52373,-36.0463 84.33608,-34.5125 136.57242,-31.3754 53.00325,2.8897 107.27885,8.9745 147.24955,-20.9832 29.15729,-22.0689 43.31583,-59.809 44.3153,-96.3717 0.99948,-36.5627 24.84572,-68.16676 12.47027,-102.56706 35.43367,-33.18244 39.37765,-77.72156 35.36281,-126.08566 -8.27524,-99.07333 -39.52028,-130.33872 -58.41498,-227.956 -4.73345,-24.43034 -162.69994,-77.2833 -172.85372,-85.19169 -49.88707,-37.8578 -104.64084,-69.4126 -162.42318,-93.63761 -34.00091,-14.66156 -70.12001,-27.00627 -107.07303,-25.78641 -26.785181,0.97203 -52.689698,9.00057 -78.859137,15.17182 -82.210525,19.89143 -170.640643,20.69889 -255.835543,28.59071 -86.55222,7.50935 -166.80995,22.98016 -236.91759,71.02902 -49.5846,34.19564 -94.03796,96.78232 -69.7165,152.01762 4.32348,9.8054 10.50211,18.85989 12.8906,29.26186 3.51996,15.26745 -1.65363,31.04353 -7.30512,45.65373 -15.50709,39.85978 -35.40514,78.3307 -44.40585,120.12141 -9.00028,41.78676 -5.32565,89.10341 22.29593,121.74976 35.88251,42.4813 17.80515,108.5517 70.84647,125.5288 11.80911,3.7694 94.50963,6.4981 102.90295,15.5892 7.57754,8.2057 97.23593,51.3738 143.33234,80.4699 0,0 0,0 0,0"
           style="fill:#117569;fill-opacity:1;filter:url(#filter4732-4)"
           id="path8901"
           transform="matrix(0.9981598,0.0606384,-0.0606384,0.9981598,-75.633404,18.815069)" />
        <path
           inkscape:connector-curvature="0"
           d="m -219.97283,1139.7909 c 64.35738,41.3028 142.920328,81.7582 213.9428384,54.1867 23.6360166,-8.2008 45.3245546,-23.3482 71.2369246,-25.4436 44.388297,-3.964 91.787317,36.6616 129.508107,13.2467 14.52287,-8.4801 22.58802,-23.1747 34.39981,-35.2865 32.27419,-34.6099 81.13543,-33.1916 131.36955,-30.2075 51.38449,2.613 103.91442,9.1793 142.8067,-19.6551 28.18416,-21.2133 41.938,-57.5823 42.99721,-92.849 1.05922,-35.26681 23.99583,-65.80078 12.14634,-99.01616 34.26724,-31.91732 38.3351,-74.76192 34.58777,-121.42639 -7.72499,-95.59051 -38.44994,-126.10948 -56.42365,-220.32297 -4.50282,-23.57835 -156.05463,-74.42804 -165.80138,-82.15172 -47.8908,-36.41251 -100.4802,-66.76829 -155.97917,-90.0877 -32.77284,-14.38262 -67.61988,-26.52377 -103.30058,-25.61617 -25.833679,0.77804 -50.837788,8.3373 -76.135054,14.17426 -79.049538,19.03272 -164.084186,19.77789 -246.007836,27.31594 -83.95964,6.96434 -160.21939,22.03724 -228.08199,67.97153 -47.9037,32.72263 -92.85679,92.5256 -69.53957,145.86994 4.1447,9.46872 10.08293,18.22004 12.35935,28.26034 3.35564,14.73634 -1.67573,29.94152 -7.16499,44.01892 -15.06194,38.40895 -34.35475,75.46784 -43.14548,115.75903 -8.79008,40.28526 -5.36867,85.93779 21.19163,117.50095 34.50329,41.07087 17.42371,104.6828 68.54558,121.1963 11.38143,3.6665 90.81795,6.3403 98.89064,15.1299 7.28524,7.939 93.34886,49.44 137.59725,77.4323 0,0 0,0 0,0"
           style="fill:#137b6a;fill-opacity:1;filter:url(#filter4732-4)"
           id="path8903"
           transform="matrix(0.9981598,0.0606384,-0.0606384,0.9981598,-75.633404,18.815069)" />
        <path
           inkscape:connector-curvature="0"
           d="m -223.1836,1119.3634 c 61.65755,39.8836 137.088018,78.9403 205.29434,52.7846 22.8602925,-7.4705 43.927192,-21.5635 69.197617,-23.5144 42.680905,-3.7794 88.258223,35.1313 124.538523,12.7508 14.15217,-8.0211 22.00103,-21.7647 33.57887,-33.3852 31.02465,-33.1736 77.93477,-31.8707 126.16668,-29.0397 49.76573,2.3363 100.54999,9.3841 138.36384,-18.3269 27.21104,-20.3578 40.56017,-55.3556 41.67912,-89.3265 1.11897,-33.97087 23.14594,-63.4347 11.82242,-95.46516 33.1008,-30.65221 37.29254,-71.80227 33.81272,-116.76712 C 554.09579,686.96613 523.89092,657.19358 506.8382,566.38388 502.56603,543.65751 357.42888,494.8111 348.08918,487.27212 302.19464,452.30491 251.7696,423.14815 198.554,400.73435 c -31.54476,-14.1037 -65.11974,-26.04127 -99.528128,-25.44593 -24.88217,0.58404 -48.98587,7.67402 -73.410962,13.17669 -75.888552,18.17402 -157.52772,18.85688 -236.18012,26.04117 -81.36707,6.41934 -153.62884,21.09433 -219.2464,64.91404 -46.2228,31.24962 -91.67563,88.26888 -69.36264,139.72227 3.96591,9.13203 9.66376,17.58019 11.82809,27.25881 3.19132,14.20523 -1.69782,28.83951 -7.02484,42.3841 -14.61681,36.95812 -33.30438,72.60499 -41.88512,111.39666 -8.57988,38.78377 -5.4117,82.77216 20.08732,113.25215 33.12408,39.66038 17.04228,100.81379 66.24469,116.86379 10.95377,3.5637 87.12629,6.1826 94.87833,14.6705 6.99295,7.6725 89.4618,47.5063 131.86218,74.3948 0,0 0,0 0,0"
           style="fill:#15816b;fill-opacity:1;filter:url(#filter4732-4)"
           id="path8905"
           transform="matrix(0.9981598,0.0606384,-0.0606384,0.9981598,-75.633404,18.815069)" />
        <path
           inkscape:connector-curvature="0"
           d="m -226.39438,1098.9358 c 58.95774,38.4645 131.255718,76.1226 196.645851,51.3825 22.0845693,-6.7401 42.52983,-19.7787 67.158309,-21.5851 40.973514,-3.5948 84.72913,33.6011 119.56895,12.2549 13.78147,-7.5622 21.41402,-20.3548 32.75791,-31.484 29.77511,-31.7373 74.73412,-30.5498 120.96381,-27.8718 48.14697,2.0596 97.18556,9.5889 133.92098,-16.9987 26.23792,-19.5023 39.18235,-53.129 40.36104,-85.804 1.17871,-32.67494 22.29606,-61.06861 11.49849,-91.91416 31.93436,-29.3871 36.24998,-68.84262 33.03768,-112.10785 -6.62448,-88.62487 -36.30928,-117.651 -52.441,-205.05691 C 473.0361,547.8763 334.31363,501.03316 325.38096,493.67889 281.48269,460.15698 233.22202,432.19923 182.28979,410.69104 151.9731,396.86627 119.67017,385.13226 86.534108,385.41534 c -23.930664,0.39005 -47.133957,7.01075 -70.686874,12.17913 -72.727566,17.31531 -150.971254,17.93588 -226.352414,24.7664 -78.77448,5.87433 -147.03828,20.15141 -210.4108,61.85656 -44.5419,29.77661 -90.49446,84.01215 -69.18571,133.57458 3.78712,8.79535 9.24459,16.94034 11.29683,26.25729 3.02701,13.67412 -1.71991,27.7375 -6.8847,40.74928 -14.17167,35.5073 -32.25399,69.74214 -40.62474,107.0343 -8.36969,37.28227 -5.45474,79.60653 18.98301,109.00334 31.74486,38.24989 16.66085,96.94478 63.9438,112.53128 10.52609,3.4608 83.43461,6.0249 90.86601,14.2112 6.70067,7.4058 85.57474,45.5725 126.1271,71.3571 0,0 0,0 0,0"
           style="fill:#18886c;fill-opacity:1;filter:url(#filter4732-4)"
           id="path8907"
           transform="matrix(0.9981598,0.0606384,-0.0606384,0.9981598,-75.633404,18.815069)" />
        <path
           inkscape:connector-curvature="0"
           d="m -229.60516,1078.5083 c 56.25792,37.0453 125.42342,73.3047 187.997362,49.9804 21.308846,-6.0098 41.13246836,-17.9941 65.119002,-19.6559 39.266122,-3.4102 81.200036,32.0708 114.599366,11.759 13.41077,-7.1032 20.82703,-18.9448 31.93697,-29.5828 28.52556,-30.3009 71.53345,-29.2288 115.76093,-26.7039 46.52822,1.7829 93.82114,9.7936 129.47813,-15.6705 25.2648,-18.6468 37.80452,-50.9024 39.04295,-82.28145 1.23845,-31.37905 21.44617,-58.70258 11.17457,-88.36321 30.76792,-28.12199 35.20742,-65.88298 32.26263,-107.44858 -6.07423,-85.14205 -35.23895,-113.42175 -50.44967,-197.42389 -3.81091,-21.02239 -136.11871,-65.86225 -144.64434,-73.03181 -41.902,-32.07662 -87.99831,-58.83534 -136.64717,-79.43794 -29.0886,-13.54584 -60.11948,-25.07628 -91.983227,-25.10546 -22.979157,0.19606 -45.282042,6.34748 -67.9627857,11.18157 -69.5665783,16.45661 -144.4147873,17.01488 -216.5247073,23.49163 -76.1819,5.32933 -140.44772,19.20849 -201.57519,58.79907 -42.86101,28.3036 -89.3133,79.75543 -69.00879,127.42691 3.60833,8.45866 8.82541,16.30048 10.76558,25.25576 2.86269,13.14301 -1.74202,26.63549 -6.74456,39.11447 -13.72653,34.05646 -31.20362,66.87928 -39.36438,102.67192 -8.15948,35.78077 -5.49776,76.4409 17.8787,104.75453 30.36565,36.83942 16.27942,93.07588 61.64291,108.19888 10.09843,3.3578 79.74295,5.8671 86.8537,13.7518 6.40838,7.1392 81.68768,43.6387 120.39202,68.3195 0,0 0,0 0,0"
           style="fill:#1a8e6d;fill-opacity:1;filter:url(#filter4732-4)"
           id="path8909"
           transform="matrix(0.9981598,0.0606384,-0.0606384,0.9981598,-75.633404,18.815069)" />
        <path
           inkscape:connector-curvature="0"
           d="m -232.81593,1058.0808 c 53.55809,35.626 119.59111,70.4868 179.348863,48.5783 20.533123,-5.2795 39.735106,-16.2094 63.079694,-17.7266 37.558732,-3.2257 77.67094,30.5404 109.629793,11.263 13.04006,-6.6443 20.24002,-17.5349 31.11601,-27.6815 27.27603,-28.8646 68.3328,-27.908 110.55806,-25.536 44.90946,1.5061 90.45671,9.9983 125.03528,-14.3424 24.29167,-17.7912 36.4267,-48.6758 37.72485,-78.75892 1.2982,-30.08314 20.59629,-56.33653 10.85065,-84.81224 29.60149,-26.85687 34.16487,-62.92333 31.48758,-102.78932 -5.52397,-81.65923 -34.16861,-109.1925 -48.45834,-189.79085 -3.58026,-20.1704 -129.4734,-63.00699 -137.59198,-69.99185 C 240.05879,475.8611 196.12684,450.3014 149.76136,430.60441 121.90083,417.33749 92.142007,406.01062 61.550578,405.66919 c -22.02765,0.002 -43.430127,5.68419 -65.238697,10.184 -66.405592,15.5979 -137.858331,16.09387 -206.697001,22.21686 -73.58932,4.78432 -133.85716,18.26557 -192.73959,55.74159 -41.18011,26.83058 -88.13214,75.4987 -68.83187,121.27922 3.42955,8.12197 8.40625,15.66063 10.23433,24.25424 2.69837,12.6119 -1.76411,25.53348 -6.60442,37.47965 -13.28139,32.60563 -30.15323,64.01643 -38.10401,98.30955 -7.94928,34.27928 -5.54079,73.27528 16.77439,100.50573 28.98644,35.42893 15.89799,89.20685 59.34203,103.86637 9.67076,3.255 76.05127,5.7093 82.84138,13.2925 6.11609,6.8725 77.80062,41.7049 114.65695,65.2819 0,0 0,0 0,0"
           style="fill:#1c946e;fill-opacity:1;filter:url(#filter4732-4)"
           id="path8911"
           transform="matrix(0.9981598,0.0606384,-0.0606384,0.9981598,-75.633404,18.815069)" />
        <path
           inkscape:connector-curvature="0"
           d="m -236.02671,1037.6533 c 50.85828,34.2068 113.75881,67.6689 170.700374,47.1762 19.7574,-4.5492 38.337744,-14.4247 61.0403864,-15.7974 35.8513406,-3.0411 74.1418456,29.0101 104.6602196,10.7671 12.66936,-6.1853 19.65302,-16.1249 30.29505,-25.7803 26.02649,-27.4282 65.13215,-26.587 105.3552,-24.3681 43.2907,1.2294 87.09227,10.2031 120.59242,-13.0142 23.31854,-16.9357 35.04887,-46.44916 36.40676,-75.23639 1.35795,-28.78723 19.74641,-53.97047 10.52672,-81.26127 28.43506,-25.59176 33.12232,-59.96368 30.71254,-98.13005 C 429.28924,683.83248 401.16468,657.04563 387.79595,579.85107 384.44632,560.53265 264.96786,519.69934 257.25631,512.89919 219.34684,483.71316 177.57926,459.35248 133.49714,440.5611 106.86469,427.57311 78.377923,416.4498 49.058814,415.79611 c -21.076145,-0.19193 -41.578213,5.02092 -62.514609,9.18644 -63.244606,14.7392 -131.301865,15.17287 -196.869285,20.94209 -70.99675,4.23932 -127.26661,17.32266 -183.904,52.6841 -39.49921,25.35758 -86.95097,71.24199 -68.65494,115.13155 3.25076,7.78528 7.98708,15.02078 9.70308,23.25271 2.53405,12.08079 -1.78621,24.43147 -6.46428,35.84483 -12.83626,31.15481 -29.10285,61.15359 -36.84365,93.94718 -7.73908,32.77779 -5.58382,70.10965 15.67009,96.25693 27.60722,34.01844 15.51655,85.33788 57.04113,99.53389 9.24309,3.15207 72.35961,5.55159 78.82908,12.83313 5.8238,6.60594 73.91355,39.77114 108.92186,62.24434 0,0 0,0 0,0"
           style="fill:#1e9a6f;fill-opacity:1;filter:url(#filter4732-4)"
           id="path8913"
           transform="matrix(0.9981598,0.0606384,-0.0606384,0.9981598,-75.633404,18.815069)" />
      </g>
    </g>
  </g>
</svg>
